<svg width="64" height="64" viewBox="0 0 64 64" xmlns="http://www.w3.org/2000/svg">
  <defs>
    <linearGradient id="mainGradient" x1="0%" y1="0%" x2="100%" y2="100%">
      <stop offset="0%" style="stop-color:#6366f1;stop-opacity:1" />
      <stop offset="50%" style="stop-color:#8b5cf6;stop-opacity:1" />
      <stop offset="100%" style="stop-color:#a855f7;stop-opacity:1" />
    </linearGradient>

    <linearGradient id="checkGradient" x1="0%" y1="0%" x2="100%" y2="100%">
      <stop offset="0%" style="stop-color:#ffffff;stop-opacity:1" />
      <stop offset="100%" style="stop-color:#f1f5f9;stop-opacity:1" />
    </linearGradient>

    <radialGradient id="starGradient" cx="50%" cy="50%" r="50%">
      <stop offset="0%" style="stop-color:#fbbf24;stop-opacity:1" />
      <stop offset="100%" style="stop-color:#f59e0b;stop-opacity:0.8" />
    </radialGradient>

    <filter id="shadow" x="-50%" y="-50%" width="200%" height="200%">
      <feDropShadow dx="0" dy="2" stdDeviation="3" flood-color="#000000" flood-opacity="0.2"/>
    </filter>
  </defs>

  <rect x="4" y="4" width="56" height="56" rx="16" ry="16" 
        fill="url(#mainGradient)" 
        filter="url(#shadow)"/>

  <rect x="6" y="6" width="52" height="52" rx="14" ry="14" 
        fill="none" 
        stroke="rgba(255,255,255,0.3)" 
        stroke-width="1"/>

  <path d="M 18 32 L 28 42 L 46 22" 
        stroke="url(#checkGradient)" 
        stroke-width="5" 
        stroke-linecap="round" 
        stroke-linejoin="round" 
        fill="none"/>

  <path d="M 18 32 L 28 42 L 46 22" 
        stroke="rgba(255,255,255,0.6)" 
        stroke-width="3" 
        stroke-linecap="round" 
        stroke-linejoin="round" 
        fill="none"/>

  <g transform="translate(48,16)">
    <path d="M 0,-6 L 1.5,-1.5 L 6,0 L 1.5,1.5 L 0,6 L -1.5,1.5 L -6,0 L -1.5,-1.5 Z" 
          fill="url(#starGradient)" opacity="0.9"/>
  </g>

  <g transform="translate(14,18)">
    <path d="M 0,-4 L 1,-1 L 4,0 L 1,1 L 0,4 L -1,1 L -4,0 L -1,-1 Z" 
          fill="url(#starGradient)" opacity="0.7"/>
  </g>

  <g transform="translate(52,46)">
    <path d="M 0,-2.5 L 0.8,-0.8 L 2.5,0 L 0.8,0.8 L 0,2.5 L -0.8,0.8 L -2.5,0 L -0.8,-0.8 Z" 
          fill="url(#starGradient)" opacity="0.8"/>
  </g>

  <ellipse cx="22" cy="18" rx="8" ry="4" 
           fill="rgba(255,255,255,0.2)" 
           transform="rotate(-30 22 18)"/>
  
  <ellipse cx="38" cy="35" rx="6" ry="3" 
           fill="rgba(255,255,255,0.15)" 
           transform="rotate(45 38 35)"/>
</svg>